<svg width="26" height="26" viewBox="0 0 26 26" fill="none" xmlns="http://www.w3.org/2000/svg">
<path d="M24.1689 20.388V18.2893C24.1689 17.1761 23.7267 16.1084 22.9395 15.3212C22.1523 14.534 21.0847 14.0918 19.9714 14.0918H11.5764C10.4632 14.0918 9.39551 14.534 8.60833 15.3212C7.82114 16.1084 7.37891 17.1761 7.37891 18.2893V20.388" fill="#FB836F"/>
<path d="M24.1689 20.388V18.2893C24.1689 17.1761 23.7267 16.1084 22.9395 15.3212C22.1523 14.534 21.0847 14.0918 19.9714 14.0918H11.5764C10.4632 14.0918 9.39551 14.534 8.60833 15.3212C7.82114 16.1084 7.37891 17.1761 7.37891 18.2893V20.388H24.1689Z" stroke="#FB836F" stroke-width="2" stroke-linecap="round" stroke-linejoin="round"/>
<path d="M15.7737 9.895C18.0919 9.895 19.9712 8.01572 19.9712 5.6975C19.9712 3.37928 18.0919 1.5 15.7737 1.5C13.4555 1.5 11.5762 3.37928 11.5762 5.6975C11.5762 8.01572 13.4555 9.895 15.7737 9.895Z" fill="#FB836F" stroke="#FB836F" stroke-width="2" stroke-linecap="round" stroke-linejoin="round"/>
<path d="M17.6194 21.3512V19.503C17.6194 18.5227 17.23 17.5825 16.5368 16.8893C15.8436 16.1961 14.9034 15.8066 13.9231 15.8066H6.53035C5.55001 15.8066 4.60983 16.1961 3.91662 16.8893C3.22342 17.5825 2.83398 18.5227 2.83398 19.503V21.3512" stroke="black" stroke-width="2" stroke-linecap="round" stroke-linejoin="round"/>
<path d="M10.2276 12.1105C12.2691 12.1105 13.924 10.4556 13.924 8.41414C13.924 6.37269 12.2691 4.71777 10.2276 4.71777C8.18617 4.71777 6.53125 6.37269 6.53125 8.41414C6.53125 10.4556 8.18617 12.1105 10.2276 12.1105Z" stroke="black" stroke-width="2" stroke-linecap="round" stroke-linejoin="round"/>
<path d="M23.1649 21.3512V19.503C23.1642 18.684 22.8916 17.8884 22.3899 17.2411C21.8881 16.5938 21.1856 16.1315 20.3926 15.9268" stroke="black" stroke-width="2" stroke-linecap="round" stroke-linejoin="round"/>
<path d="M16.6953 4.83789C17.4904 5.04147 18.1951 5.50388 18.6984 6.15223C19.2017 6.80059 19.4748 7.59799 19.4748 8.41874C19.4748 9.23949 19.2017 10.0369 18.6984 10.6853C18.1951 11.3336 17.4904 11.796 16.6953 11.9996" stroke="black" stroke-width="2" stroke-linecap="round" stroke-linejoin="round"/>
</svg>
